<svg width="32" height="18" viewBox="0 0 32 18" fill="none" xmlns="http://www.w3.org/2000/svg">
<path d="M2.19931 5C5.20002 5 7.07319 6.56246 8.45527 7.7153L8.46365 7.72229C8.53673 7.78324 8.60842 7.84302 8.67883 7.90136C10.0437 9.03209 11.1092 9.82831 13.0859 9.82831H18.9141C20.8908 9.82831 21.9563 9.03209 23.3212 7.90136C23.3943 7.8408 23.4688 7.77867 23.5447 7.7153C24.9268 6.56246 26.8 5 29.8007 5C31.0153 5 32 6.08086 32 7.41416C32 8.74746 31.0153 9.82831 29.8007 9.82831C28.2969 9.82831 27.4863 10.4998 25.9833 11.745L25.9709 11.7553C24.4217 13.0387 22.3807 14.6566 18.9141 14.6566H13.0859C9.61932 14.6566 7.57827 13.0387 6.02908 11.7553L6.01671 11.745C4.51369 10.4998 3.7031 9.82831 2.19931 9.82831C0.98467 9.82831 0 8.74746 0 7.41416C0 6.08086 0.98467 5 2.19931 5Z" fill="#EE7B17"/>
</svg>
