<svg width="16" height="17" viewBox="0 0 16 17" fill="none" xmlns="http://www.w3.org/2000/svg">
<path d="M14.52 8.41992L13.1867 6.75325C13.1246 6.67468 13.0456 6.61111 12.9556 6.56725C12.8656 6.52339 12.7668 6.50038 12.6667 6.49992H8.66669V2.49992C8.66669 2.32311 8.59645 2.15354 8.47143 2.02851C8.34641 1.90349 8.17684 1.83325 8.00002 1.83325C7.82321 1.83325 7.65364 1.90349 7.52862 2.02851C7.4036 2.15354 7.33336 2.32311 7.33336 2.49992V3.16659H3.33336C3.23322 3.16705 3.13447 3.19006 3.04445 3.23392C2.95443 3.27778 2.87544 3.34135 2.81336 3.41992L1.48002 5.08659C1.38702 5.20428 1.33643 5.34991 1.33643 5.49992C1.33643 5.64993 1.38702 5.79555 1.48002 5.91325L2.81336 7.57992C2.87544 7.65849 2.95443 7.72206 3.04445 7.76592C3.13447 7.80978 3.23322 7.83279 3.33336 7.83325H7.33336V13.8333H6.00002C5.82321 13.8333 5.65364 13.9035 5.52862 14.0285C5.4036 14.1535 5.33336 14.3231 5.33336 14.4999C5.33336 14.6767 5.4036 14.8463 5.52862 14.9713C5.65364 15.0963 5.82321 15.1666 6.00002 15.1666H10C10.1768 15.1666 10.3464 15.0963 10.4714 14.9713C10.5965 14.8463 10.6667 14.6767 10.6667 14.4999C10.6667 14.3231 10.5965 14.1535 10.4714 14.0285C10.3464 13.9035 10.1768 13.8333 10 13.8333H8.66669V11.1666H12.6667C12.7668 11.1661 12.8656 11.1431 12.9556 11.0993C13.0456 11.0554 13.1246 10.9918 13.1867 10.9133L14.52 9.24659C14.613 9.12889 14.6636 8.98326 14.6636 8.83325C14.6636 8.68324 14.613 8.53762 14.52 8.41992V8.41992ZM7.33336 6.49992H3.65336L2.85336 5.49992L3.65336 4.49992H7.33336V6.49992ZM12.3467 9.83325H8.66669V7.83325H12.3467L13.1467 8.83325L12.3467 9.83325Z" fill="#EB5757"/>
</svg>
