<svg width="16" height="16" viewBox="0 0 16 16" fill="none" xmlns="http://www.w3.org/2000/svg">
<rect width="16" height="16" rx="4" fill="#EB5757"/>
<path d="M11.7158 4.2958C11.6228 4.20207 11.5122 4.12768 11.3904 4.07691C11.2685 4.02614 11.1378 4 11.0058 4C10.8738 4 10.7431 4.02614 10.6212 4.07691C10.4994 4.12768 10.3888 4.20207 10.2958 4.2958L8.0058 6.5958L5.7158 4.2958C5.52749 4.10749 5.2721 4.00171 5.0058 4.00171C4.7395 4.00171 4.4841 4.10749 4.2958 4.2958C4.10749 4.4841 4.00171 4.7395 4.00171 5.0058C4.00171 5.2721 4.10749 5.52749 4.2958 5.7158L6.5958 8.0058L4.2958 10.2958C4.20207 10.3888 4.12768 10.4994 4.07691 10.6212C4.02614 10.7431 4 10.8738 4 11.0058C4 11.1378 4.02614 11.2685 4.07691 11.3904C4.12768 11.5122 4.20207 11.6228 4.2958 11.7158C4.38876 11.8095 4.49936 11.8839 4.62122 11.9347C4.74308 11.9855 4.87379 12.0116 5.0058 12.0116C5.13781 12.0116 5.26852 11.9855 5.39038 11.9347C5.51223 11.8839 5.62284 11.8095 5.7158 11.7158L8.0058 9.4158L10.2958 11.7158C10.3888 11.8095 10.4994 11.8839 10.6212 11.9347C10.7431 11.9855 10.8738 12.0116 11.0058 12.0116C11.1378 12.0116 11.2685 11.9855 11.3904 11.9347C11.5122 11.8839 11.6228 11.8095 11.7158 11.7158C11.8095 11.6228 11.8839 11.5122 11.9347 11.3904C11.9855 11.2685 12.0116 11.1378 12.0116 11.0058C12.0116 10.8738 11.9855 10.7431 11.9347 10.6212C11.8839 10.4994 11.8095 10.3888 11.7158 10.2958L9.4158 8.0058L11.7158 5.7158C11.8095 5.62284 11.8839 5.51223 11.9347 5.39038C11.9855 5.26852 12.0116 5.13781 12.0116 5.0058C12.0116 4.87379 11.9855 4.74308 11.9347 4.62122C11.8839 4.49936 11.8095 4.38876 11.7158 4.2958Z" fill="white"/>
</svg>
