<svg width="89" height="119" viewBox="0 0 89 119" fill="none" xmlns="http://www.w3.org/2000/svg">
<path d="M2.96216 2.22168H85.9028V15.5514H2.96216V2.22168Z" fill="#E1E6EB"/>
<path fill-rule="evenodd" clip-rule="evenodd" d="M8.51623 2.96217H80.3488C83.4162 2.96217 85.9028 5.44881 85.9028 8.51623V9.25677C85.9028 12.3242 83.4162 14.8108 80.3488 14.8108H8.51623C5.44881 14.8108 2.96217 12.3242 2.96217 9.25677V8.51623C2.96217 5.44881 5.4488 2.96217 8.51623 2.96217ZM0 8.51623C0 3.81285 3.81285 0 8.51623 0H80.3488C85.0521 0 88.865 3.81285 88.865 8.51623V9.25677C88.865 13.9602 85.0521 17.773 80.3488 17.773H76.2358L83.846 110.345C84.1811 114.421 81.1484 117.998 77.0722 118.333C72.9961 118.668 69.4201 115.635 69.085 111.559L65.5657 68.749C65.5025 67.9807 64.8605 67.3893 64.0896 67.3893H23.3253C22.5544 67.3893 21.9124 67.9807 21.8492 68.749L18.3299 111.559C17.9948 115.635 14.4188 118.668 10.3427 118.333C6.26652 117.998 3.23379 114.421 3.56888 110.345L11.1791 17.773H8.51623C3.81285 17.773 0 13.9602 0 9.25677V8.51623ZM14.1512 17.773L6.52109 110.588C6.32004 113.034 8.13967 115.179 10.5854 115.38C13.0311 115.581 15.1767 113.762 15.3777 111.316L18.897 68.5063C19.0865 66.2013 21.0125 64.4271 23.3253 64.4271H64.0896C66.4024 64.4271 68.3284 66.2013 68.5179 68.5063L72.0372 111.316C72.2382 113.762 74.3839 115.581 76.8295 115.38C79.2752 115.179 81.0949 113.034 80.8938 110.588L73.2637 17.773H64.3472L67.3003 53.6955C67.5131 56.2843 65.4695 58.5028 62.872 58.5028H24.5429C21.9454 58.5028 19.9018 56.2843 20.1146 53.6955L23.0677 17.773H14.1512ZM26.0399 17.773L23.0668 53.9382C22.9959 54.8011 23.6771 55.5406 24.5429 55.5406H62.872C63.7378 55.5406 64.419 54.8011 64.3481 53.9382L61.375 17.773H26.0399Z" fill="#C2CCD6"/>
</svg>
