<svg width="160" height="160" viewBox="0 0 160 160" fill="none" xmlns="http://www.w3.org/2000/svg">
<path d="M18.5247 51.3604C31.8612 51.3604 40.1864 57.6866 46.329 62.3544L46.3662 62.3827C46.691 62.6295 47.0097 62.8715 47.3226 63.1077C53.3888 67.6859 58.1242 70.9098 66.9096 70.9098H92.8126C101.598 70.9098 106.333 67.6859 112.4 63.1077C112.725 62.8625 113.056 62.6109 113.393 62.3544C119.536 57.6866 127.861 51.3604 141.197 51.3604C146.596 51.3604 150.972 55.7366 150.972 61.1351C150.972 66.5335 146.596 70.9098 141.197 70.9098C134.514 70.9098 130.911 73.6288 124.231 78.6704L124.176 78.7119C117.291 83.9084 108.22 90.4592 92.8126 90.4592H66.9096C51.5025 90.4592 42.4312 83.9084 35.5459 78.7119L35.4909 78.6704C28.8109 73.6288 25.2082 70.9098 18.5247 70.9098C13.1263 70.9098 8.75 66.5335 8.75 61.1351C8.75 55.7366 13.1263 51.3604 18.5247 51.3604Z" fill="#D2C093"/>
<path fill-rule="evenodd" clip-rule="evenodd" d="M50.5277 37.1875C43.1639 37.1875 37.1943 43.157 37.1943 50.5208V52.6151C40.7673 54.573 43.7417 56.8332 46.329 58.7993L46.3662 58.8276C46.691 59.0744 47.0097 59.3164 47.3226 59.5526C53.3888 64.1309 58.1242 67.3547 66.9096 67.3547H92.8126C101.598 67.3547 106.333 64.1309 112.4 59.5526C112.712 59.3167 113.03 59.0749 113.355 58.8284L113.393 58.7993C115.98 56.8333 118.955 54.5731 122.528 52.6153V50.5208C122.528 43.157 116.558 37.1875 109.194 37.1875H50.5277ZM58.5278 49.6319C58.5278 51.5956 56.9359 53.1875 54.9722 53.1875C53.0085 53.1875 51.4167 51.5956 51.4167 49.6319C51.4167 47.6683 53.0085 46.0764 54.9722 46.0764C56.9359 46.0764 58.5278 47.6683 58.5278 49.6319ZM104.75 53.1875C106.714 53.1875 108.306 51.5956 108.306 49.6319C108.306 47.6683 106.714 46.0764 104.75 46.0764C102.786 46.0764 101.194 47.6683 101.194 49.6319C101.194 51.5956 102.786 53.1875 104.75 53.1875Z" fill="#D2C093" fill-opacity="0.8"/>
<path d="M16.9145 122.521L18.5436 121.893L17.5386 118.905L18.7822 118.426L21.2913 120.834L23.0941 120.139L20.3209 117.511C21.0781 116.753 21.2907 115.726 20.9036 114.575C20.3425 112.907 18.9544 112.227 17.1679 112.916L14.0835 114.104L16.9145 122.521ZM17.0616 117.487L16.1935 114.906L17.3447 114.463C18.3133 114.096 18.9402 114.373 19.2202 115.224C19.5091 116.065 19.1794 116.671 18.2128 117.044L17.0616 117.487Z" fill="#D2C093"/>
<path d="M27.3811 118.657L32.7758 116.966L32.3735 115.496L28.6404 116.666L28.0693 114.579L31.5145 113.499L31.1121 112.029L27.667 113.109L27.0959 111.022L30.818 109.855L30.4157 108.385L25.032 110.073L27.3811 118.657Z" fill="#D2C093"/>
<path d="M37.4198 115.667L42.6147 114.377L42.2913 112.884L38.783 113.756L37.218 106.534L35.5313 106.953L37.4198 115.667Z" fill="#D2C093"/>
<path d="M48.3278 113.172L48.6271 111.025L51.6092 110.486L52.5504 112.409L54.3829 112.077L50.146 103.771L47.9493 104.168L46.4839 113.505L48.3278 113.172ZM48.8348 109.522L49.3325 105.961L49.3894 105.951L50.9518 109.139L48.8348 109.522Z" fill="#D2C093"/>
<path d="M59.2844 102.42L57.3206 102.633L60.3033 106.805L58.1181 111.538L60.1049 111.322L61.5374 108.074L61.5948 108.068L63.6075 110.941L65.6057 110.724L62.5886 106.556L64.7048 101.831L62.7525 102.043L61.3315 105.29L61.2741 105.296L59.2844 102.42Z" fill="#D2C093"/>
<path d="M71.5446 101.397L69.8153 101.488L70.2299 110.423L71.9592 110.331L71.5446 101.397Z" fill="#D2C093"/>
<path d="M83.7015 101.201L81.9816 101.198L81.9718 106.881L81.891 106.881L78.2532 101.19L76.7295 101.188L76.7142 110.133L78.4456 110.136L78.4554 104.453L78.5246 104.453L82.1855 110.144L83.6861 110.147L83.7015 101.201Z" fill="#D2C093"/>
<path d="M94.365 104.674L96.1153 104.805C95.9998 103.032 94.6357 101.685 92.753 101.544C90.5536 101.379 88.7498 102.953 88.5605 105.85C88.376 108.672 89.8506 110.541 92.1881 110.716C94.2896 110.874 95.8857 109.556 96.0388 107.215L96.1113 106.105L92.6338 105.845L92.5428 107.238L94.3506 107.373C94.2543 108.493 93.499 109.161 92.3068 109.078C90.9772 108.972 90.2006 107.843 90.3238 105.957C90.4463 104.083 91.3903 103.095 92.6804 103.186C93.5896 103.26 94.1838 103.818 94.365 104.674Z" fill="#D2C093"/>
<path d="M108.088 105.005L110.612 105.476L109.421 112.779L111.116 113.096L112.307 105.793L114.831 106.264L115.077 104.755L108.334 103.495L108.088 105.005Z" fill="#D2C093"/>
<path d="M121.639 106.272L119.95 105.863L118.107 114.588L119.796 114.997L121.639 106.272Z" fill="#D2C093"/>
<path d="M126.728 107.55L124.423 116.148L126.043 116.646L127.559 110.993L127.625 111.013L128.216 117.275L129.326 117.616L132.922 112.666L132.989 112.686L131.48 118.316L133.1 118.813L135.405 110.215L133.341 109.581L129.548 114.727L129.459 114.7L128.792 108.184L126.728 107.55Z" fill="#D2C093"/>
<path d="M137.519 120.406L142.804 122.455L143.292 121.014L139.634 119.597L140.326 117.552L143.701 118.86L144.189 117.42L140.813 116.112L141.505 114.067L145.152 115.48L145.639 114.04L140.364 111.995L137.519 120.406Z" fill="#D2C093"/>
</svg>
