<svg width="16" height="16" viewBox="0 0 16 16" fill="none" xmlns="http://www.w3.org/2000/svg">
<rect width="16" height="16" rx="4" fill="#6FCF97"/>
<path d="M6.21409 10.7941C6.30705 10.8878 6.41766 10.9622 6.53952 11.013C6.66137 11.0638 6.79208 11.0899 6.92409 11.0899C7.0561 11.0899 7.18681 11.0638 7.30867 11.013C7.43053 10.9622 7.54113 10.8878 7.63409 10.7941L11.7141 6.71409C11.9024 6.52579 12.0082 6.27039 12.0082 6.00409C12.0082 5.73779 11.9024 5.48239 11.7141 5.29409C11.5258 5.10579 11.2704 5 11.0041 5C10.7378 5 10.4824 5.10579 10.2941 5.29409L6.92409 8.67409L5.71409 7.45409C5.52579 7.26579 5.27039 7.16 5.00409 7.16C4.73779 7.16 4.4824 7.26579 4.29409 7.45409C4.10579 7.64239 4 7.89779 4 8.16409C4 8.43039 4.10579 8.68579 4.29409 8.87409L6.21409 10.7941Z" fill="white"/>
</svg>
