<svg width="16" height="16" viewBox="0 0 16 16" fill="none" xmlns="http://www.w3.org/2000/svg">
<path fill-rule="evenodd" clip-rule="evenodd" d="M1.33325 2.00001C1.33325 1.63182 1.63173 1.33334 1.99992 1.33334H3.33325C3.65104 1.33334 3.92465 1.55765 3.98697 1.86927L4.14645 2.66668H13.9999C14.231 2.66668 14.4455 2.78631 14.567 2.98286C14.6885 3.1794 14.6995 3.42483 14.5962 3.63149L11.9295 8.96482C11.8166 9.19067 11.5858 9.33334 11.3333 9.33334H4.94273L3.60939 10.6667H11.3333C11.8637 10.6667 12.3724 10.8774 12.7475 11.2525C13.1225 11.6275 13.3333 12.1362 13.3333 12.6667C13.3333 13.1971 13.1225 13.7058 12.7475 14.0809C12.3724 14.456 11.8637 14.6667 11.3333 14.6667C10.8028 14.6667 10.2941 14.456 9.91904 14.0809C9.54397 13.7058 9.33325 13.1971 9.33325 12.6667C9.33325 12.4374 9.37263 12.2121 9.44763 12H6.5522C6.62721 12.2121 6.66659 12.4374 6.66659 12.6667C6.66659 13.1971 6.45587 13.7058 6.0808 14.0809C5.70573 14.456 5.19702 14.6667 4.66659 14.6667C4.13615 14.6667 3.62744 14.456 3.25237 14.0809C2.8773 13.7058 2.66659 13.1971 2.66659 12.6667C2.66659 12.3573 2.73828 12.0553 2.87245 11.7829C2.21929 11.3494 2.02675 10.3637 2.66651 9.72394L3.94289 8.44756L2.78672 2.66668H1.99992C1.63173 2.66668 1.33325 2.3682 1.33325 2.00001ZM5.21312 8.00001H10.9212L12.9212 4.00001H4.41312L5.21312 8.00001ZM4.66659 12C4.48977 12 4.32021 12.0702 4.19518 12.1953C4.07016 12.3203 3.99992 12.4899 3.99992 12.6667C3.99992 12.8435 4.07016 13.0131 4.19518 13.1381C4.32021 13.2631 4.48977 13.3333 4.66659 13.3333C4.8434 13.3333 5.01296 13.2631 5.13799 13.1381C5.26301 13.0131 5.33325 12.8435 5.33325 12.6667C5.33325 12.4899 5.26301 12.3203 5.13799 12.1953C5.01296 12.0702 4.8434 12 4.66659 12ZM11.3333 12C11.1564 12 10.9869 12.0702 10.8618 12.1953C10.7368 12.3203 10.6666 12.4899 10.6666 12.6667C10.6666 12.8435 10.7368 13.0131 10.8618 13.1381C10.9869 13.2631 11.1564 13.3333 11.3333 13.3333C11.5101 13.3333 11.6796 13.2631 11.8047 13.1381C11.9297 13.0131 11.9999 12.8435 11.9999 12.6667C11.9999 12.4899 11.9297 12.3203 11.8047 12.1953C11.6796 12.0702 11.5101 12 11.3333 12Z" fill="#29333D"/>
</svg>
