<svg width="16" height="16" viewBox="0 0 16 16" fill="none" xmlns="http://www.w3.org/2000/svg">
<path fill-rule="evenodd" clip-rule="evenodd" d="M5.9 2.4C5.34305 2.4 4.8089 2.62125 4.41508 3.01508C4.02125 3.4089 3.8 3.94305 3.8 4.5C3.8 5.05695 4.02125 5.5911 4.41508 5.98492C4.8089 6.37875 5.34305 6.6 5.9 6.6C6.45695 6.6 6.9911 6.37875 7.38492 5.98492C7.77875 5.5911 8 5.05695 8 4.5C8 3.94305 7.77875 3.4089 7.38492 3.01508C6.9911 2.62125 6.45695 2.4 5.9 2.4ZM3.42513 2.02513C4.0815 1.36875 4.97174 1 5.9 1C6.82826 1 7.7185 1.36875 8.37487 2.02513C9.03125 2.6815 9.4 3.57174 9.4 4.5C9.4 5.42826 9.03125 6.3185 8.37487 6.97487C7.7185 7.63125 6.82826 8 5.9 8C4.97174 8 4.0815 7.63125 3.42513 6.97487C2.76875 6.3185 2.4 5.42826 2.4 4.5C2.4 3.57174 2.76875 2.6815 3.42513 2.02513ZM12.2 5.2C12.5866 5.2 12.9 5.5134 12.9 5.9V7.3H14.3C14.6866 7.3 15 7.6134 15 8C15 8.3866 14.6866 8.7 14.3 8.7H12.9V10.1C12.9 10.4866 12.5866 10.8 12.2 10.8C11.8134 10.8 11.5 10.4866 11.5 10.1V8.7H10.1C9.7134 8.7 9.4 8.3866 9.4 8C9.4 7.6134 9.7134 7.3 10.1 7.3H11.5V5.9C11.5 5.5134 11.8134 5.2 12.2 5.2ZM5.9 10.1C4.97174 10.1 4.0815 10.4687 3.42513 11.1251C2.76875 11.7815 2.4 12.6717 2.4 13.6H9.4C9.4 12.6717 9.03125 11.7815 8.37487 11.1251C7.7185 10.4687 6.82826 10.1 5.9 10.1ZM2.43518 10.1352C3.3541 9.21625 4.60044 8.7 5.9 8.7C7.19956 8.7 8.44589 9.21625 9.36482 10.1352C10.2838 11.0541 10.8 12.3004 10.8 13.6V14.3C10.8 14.6866 10.4866 15 10.1 15H1.7C1.3134 15 1 14.6866 1 14.3V13.6C1 12.3004 1.51625 11.0541 2.43518 10.1352Z" fill="#29333D"/>
</svg>
