<svg width="16" height="16" viewBox="0 0 16 16" fill="none" xmlns="http://www.w3.org/2000/svg">
<path fill-rule="evenodd" clip-rule="evenodd" d="M8.00008 2.66666C7.46965 2.66666 6.96094 2.87738 6.58587 3.25245C6.2108 3.62752 6.00008 4.13623 6.00008 4.66666C6.00008 5.19709 6.2108 5.7058 6.58587 6.08087C6.96094 6.45595 7.46965 6.66666 8.00008 6.66666C8.53051 6.66666 9.03922 6.45595 9.4143 6.08087C9.78937 5.7058 10.0001 5.19709 10.0001 4.66666C10.0001 4.13623 9.78937 3.62752 9.4143 3.25245C9.03922 2.87738 8.53051 2.66666 8.00008 2.66666ZM5.64306 2.30964C6.26818 1.68452 7.11603 1.33333 8.00008 1.33333C8.88414 1.33333 9.73198 1.68452 10.3571 2.30964C10.9822 2.93476 11.3334 3.78261 11.3334 4.66666C11.3334 5.55072 10.9822 6.39856 10.3571 7.02368C9.73198 7.64881 8.88414 7.99999 8.00008 7.99999C7.11603 7.99999 6.26818 7.64881 5.64306 7.02368C5.01794 6.39856 4.66675 5.55072 4.66675 4.66666C4.66675 3.78261 5.01794 2.93476 5.64306 2.30964ZM4.22885 10.2288C5.22904 9.22856 6.58559 8.66666 8.00008 8.66666C9.41457 8.66666 10.7711 9.22856 11.7713 10.2288C12.7715 11.229 13.3334 12.5855 13.3334 14C13.3334 14.3682 13.0349 14.6667 12.6667 14.6667H3.33341C3.1566 14.6667 2.98703 14.5964 2.86201 14.4714C2.73699 14.3464 2.66675 14.1768 2.66675 14C2.66675 12.5855 3.22865 11.229 4.22885 10.2288ZM8.00008 9.99999C6.93922 9.99999 5.9218 10.4214 5.17165 11.1716C4.58053 11.7627 4.19352 12.5198 4.05601 13.3333H11.9442C11.8066 12.5198 11.4196 11.7627 10.8285 11.1716C10.0784 10.4214 9.06095 9.99999 8.00008 9.99999Z" fill="#29333D"/>
</svg>
