<svg width="16" height="16" viewBox="0 0 16 16" fill="none" xmlns="http://www.w3.org/2000/svg">
<path fill-rule="evenodd" clip-rule="evenodd" d="M4.956 3.73897C4.52941 3.73897 4.12029 3.90843 3.81864 4.21008C3.51699 4.51173 3.34753 4.92085 3.34753 5.34744C3.34753 5.77403 3.51699 6.18315 3.81864 6.4848C4.12029 6.78644 4.52941 6.95591 4.956 6.95591C5.38259 6.95591 5.79171 6.78644 6.09336 6.4848C6.39501 6.18315 6.56447 5.77403 6.56447 5.34744C6.56447 4.92085 6.39501 4.51173 6.09336 4.21008C5.79171 3.90843 5.38259 3.73897 4.956 3.73897ZM3.0604 3.45184C3.56314 2.9491 4.24501 2.66666 4.956 2.66666C5.66699 2.66666 6.34885 2.9491 6.8516 3.45184C7.35434 3.95458 7.63678 4.63645 7.63678 5.34744C7.63678 6.05843 7.35434 6.74029 6.8516 7.24304C6.34885 7.74578 5.66699 8.02822 4.956 8.02822C4.24501 8.02822 3.56314 7.74578 3.0604 7.24304C2.55766 6.74029 2.27522 6.05843 2.27522 5.34744C2.27522 4.63645 2.55766 3.95458 3.0604 3.45184ZM1.92304 9.82067C2.72743 9.01628 3.81842 8.56438 4.956 8.56438C6.09358 8.56438 7.18457 9.01628 7.98896 9.82067C8.79335 10.6251 9.24525 11.716 9.24525 12.8536C9.24525 13.1497 9.00521 13.3898 8.70909 13.3898H1.2029C1.06071 13.3898 0.924333 13.3333 0.823785 13.2327C0.723236 13.1322 0.666748 12.9958 0.666748 12.8536C0.666748 11.716 1.11865 10.6251 1.92304 9.82067ZM4.956 9.63669C4.10281 9.63669 3.28457 9.97562 2.68128 10.5789C2.20588 11.0543 1.89463 11.6632 1.78404 12.3175H8.12796C8.01736 11.6632 7.70612 11.0543 7.23072 10.5789C6.62743 9.97562 5.80918 9.63669 4.956 9.63669Z" fill="#29333D"/>
<path d="M15.1221 10.7387C14.9894 10.8594 14.8094 10.9271 14.6217 10.9271C14.434 10.9271 14.254 10.8594 14.1213 10.7387L12.5578 9.11416L10.9943 10.7382C10.9288 10.7987 10.8507 10.8469 10.7646 10.8799C10.6785 10.9128 10.5861 10.93 10.4927 10.9303C10.3993 10.9307 10.3067 10.9142 10.2203 10.8819C10.1339 10.8495 10.0554 10.802 9.98937 10.7419C9.92331 10.6818 9.87098 10.6105 9.83541 10.532C9.79983 10.4534 9.78171 10.3693 9.78209 10.2843C9.78247 10.1994 9.80134 10.1154 9.83762 10.0371C9.8739 9.95885 9.92687 9.88789 9.99346 9.82832L11.6201 8.13943L9.99287 6.44946C9.92628 6.3899 9.87331 6.31894 9.83703 6.24067C9.80075 6.1624 9.78188 6.07838 9.7815 5.99345C9.78112 5.90852 9.79924 5.82436 9.83482 5.74583C9.87039 5.66729 9.92272 5.59594 9.98878 5.53589C10.0548 5.47583 10.1333 5.42826 10.2197 5.39592C10.3061 5.36358 10.3987 5.3471 10.4921 5.34745C10.5855 5.34779 10.678 5.36495 10.764 5.39793C10.8501 5.43091 10.9282 5.47906 10.9937 5.53961L12.5578 7.1647L14.1213 5.53961C14.1868 5.47906 14.2649 5.43091 14.351 5.39793C14.437 5.36495 14.5295 5.34779 14.6229 5.34745C14.7163 5.3471 14.8089 5.36358 14.8953 5.39592C14.9817 5.42826 15.0602 5.47583 15.1262 5.53589C15.1923 5.59594 15.2446 5.66729 15.2802 5.74583C15.3158 5.82436 15.3339 5.90852 15.3335 5.99345C15.3331 6.07838 15.3142 6.1624 15.278 6.24067C15.2417 6.31894 15.1887 6.3899 15.1221 6.44946L13.4955 8.13943L15.1221 9.82832C15.1879 9.88807 15.2401 9.95903 15.2757 10.0371C15.3114 10.1152 15.3297 10.199 15.3297 10.2835C15.3297 10.3681 15.3114 10.4518 15.2757 10.5299C15.2401 10.608 15.1879 10.679 15.1221 10.7387Z" fill="#29333D"/>
</svg>
